<svg width="88" height="88" viewBox="0 0 88 88" fill="none" xmlns="http://www.w3.org/2000/svg">
<path d="M73.3333 36.6667L74.7476 38.0809L76.1618 36.6667L74.7476 35.2525L73.3333 36.6667ZM12.6667 66C12.6667 67.1046 13.5621 68 14.6667 68C15.7712 68 16.6667 67.1046 16.6667 66L12.6667 66ZM56.4142 56.4142L74.7476 38.0809L71.9191 35.2525L53.5858 53.5858L56.4142 56.4142ZM74.7476 35.2525L56.4142 16.9191L53.5858 19.7475L71.9191 38.0809L74.7476 35.2525ZM73.3333 34.6667L20.6667 34.6667L20.6667 38.6667L73.3333 38.6667L73.3333 34.6667ZM12.6667 42.6667L12.6667 66L16.6667 66L16.6667 42.6667L12.6667 42.6667ZM20.6667 34.6667C16.2484 34.6667 12.6667 38.2484 12.6667 42.6667L16.6667 42.6667C16.6667 40.4575 18.4575 38.6667 20.6667 38.6667L20.6667 34.6667Z" fill="white"/>
</svg>
